<svg width="262" height="120" viewBox="0 0 262 120" fill="none" xmlns="http://www.w3.org/2000/svg">
<path fill-rule="evenodd" clip-rule="evenodd" d="M68.0888 99.0117C68.0888 99.0117 68.6378 101.412 69.9919 100.507C71.3461 99.6043 71.895 98.2489 73.2492 98.2489C74.6033 98.2489 80.2481 97.1945 81.6022 98.2489C82.9564 99.3033 83.092 98.3987 83.769 98.3987C84.4461 98.3987 86.4351 98.7496 86.4351 98.7496C88.1663 98.5702 87.8134 95.8359 86.5622 95.0358C84.7561 93.6304 82.3247 92.7273 80.519 91.3204C80.338 89.9649 80.1578 88.6095 79.9773 87.2541C80.4737 86.5522 80.9702 85.8487 81.467 85.1453C81.467 82.887 81.467 80.6279 81.467 78.3687C81.1961 77.7661 80.9251 77.1637 80.6543 76.5612C80.5639 74.8547 80.4737 73.148 80.3834 71.4408C80.1578 71.1395 79.9319 70.8383 79.7063 70.5371C79.7063 69.8848 79.7063 69.232 79.7063 68.5791C80.1578 67.9268 81.0722 67.2742 81.524 66.6214C81.6594 65.3663 81.054 64.4805 81.1895 63.2253C80.8733 61.6191 80.8349 59.6433 80.519 58.0369C80.519 56.0789 80.519 54.1209 80.519 52.1633C81.8289 51.7752 82.1463 51.1984 82.2399 50.6147C82.3601 49.8635 81.9898 48.9793 81.6022 47.1931C81.4217 37.8054 81.3339 28.0483 81.1534 18.6603C81.8738 17.5384 82.7373 16.958 82.7555 16.1268C82.7697 15.4796 82.0704 14.9401 81.1961 14.2103C81.1961 13.5577 81.1961 12.9054 81.1961 12.2523C81.1961 12.2523 82.6859 9.24009 83.9044 9.24009C85.1233 9.24009 85.9359 8.33666 85.9359 7.43308C87.0479 5.23771 84.7171 5.02327 84.7171 5.02327C82.1375 4.97008 79.2158 5.10126 76.6995 5.04854C74.4797 5.00159 72.6578 4.76931 70.4979 4.72205C69.5499 4.77259 68.6018 4.82234 67.6538 4.87256C65.324 5.57555 65.8137 6.8326 66.706 7.53481C67.7891 8.21237 68.7136 8.98848 69.9559 9.01437C71.4721 9.04572 72.679 9.5394 73.2061 11.0474C73.3418 17.0717 73.4769 23.0962 73.6122 29.1203C73.6576 33.5633 73.7954 38.0066 73.8402 42.4489C73.8854 46.8914 73.8386 51.3347 73.8832 55.7776C73.9735 60.9989 74.0637 66.2198 74.1542 71.4408C74.1542 71.4408 73.8832 73.3988 73.4769 73.8506C73.0708 74.3023 73.2061 78.218 73.2061 78.218C74.7059 79.5162 74.3871 79.3345 73.3418 81.0797C73.251 84.9456 73.1608 88.8107 73.0708 92.6758C72.7096 93.3793 72.3484 94.0827 71.9872 94.7846C71.9872 94.7846 68.0888 97.0541 68.0888 99.0117ZM2.50615 117.734C0.49806 117.323 0.121542 116.358 0.834809 115.789C1.26284 115.447 2.40706 115.459 2.92146 115.221C3.67422 114.868 4.44314 114.407 4.89635 113.85C5.6709 112.897 5.20105 110.691 6.12536 108.894C7.01357 101.314 7.27965 91.2705 6.39192 87.892C5.85896 82.6852 6.40605 65.3897 6.40605 63.1976C6.99583 62.1446 7.21717 62.0583 7.22172 60.2131C7.22329 59.4919 7.71168 58.3695 7.19144 57.4774C6.43683 56.6214 6.6649 53.2746 6.60587 51.3881C6.51859 48.5799 6.72599 48.6029 7.51247 46.0586C7.80854 45.1016 7.90885 43.9628 7.51247 43.0449C6.87167 41.5617 5.94514 43.2754 6.00684 40.2965C6.15801 33.0678 6.4293 25.7952 6.23794 18.5694C6.27939 17.9255 7.35861 17.8079 7.56991 17.1993C7.83851 16.4255 7.92752 15.4684 7.56991 14.7335C7.3674 14.3169 6.23398 14.8587 5.90149 14.543C3.8695 12.6139 1.31613 11.4021 0.138668 8.82816C-0.317728 7.8299 0.418356 5.62081 1.38589 5.14336C2.98878 4.35209 5.97026 5.17004 7.72408 4.86947C8.66723 4.70803 9.26408 4.15042 10.2195 4.10862C17.6713 3.78247 25.3394 3.04232 32.7646 3.77323C33.9531 3.89021 34.3449 5.97361 35.4282 6.49083C36.9133 7.19991 39.0848 7.04798 40.2231 8.25805C42.0477 10.1968 43.3568 11.7941 43.5884 14.4817C43.8725 17.78 44.443 21.5158 44.415 24.0493C44.3915 26.1709 43.7497 28.0859 42.7978 29.9106C41.4939 32.4116 39.9418 34.7455 38.261 37.216C37.2921 38.6398 35.5677 39.9617 35.1619 41.5854C34.7426 43.2639 39.107 42.0316 39.9999 43.5012C40.8581 44.9141 39.2677 46.5695 39.7475 48.1615C40.1759 49.5814 42.6504 49.7197 42.9441 51.1753C43.702 54.9322 42.0297 58.9049 42.6778 62.6832C42.8851 63.8929 44.8169 63.936 45.0047 65.1493C45.2326 67.771 45.1511 70.5461 45.1717 73.3314C45.1932 76.2961 45.3089 79.274 45.2707 82.0922C45.1974 83.1545 43.7976 83.7758 43.6726 84.8318C43.3392 87.644 44.3117 90.8197 43.6868 93.5774C43.0282 96.4817 40.6782 98.5327 39.7614 101.362C38.9674 103.813 39.1927 107.391 37.9113 108.927C35.792 109.588 33.154 111.07 31.4847 112.305C29.0453 114.109 27.4859 116.175 26.736 116.241C25.7831 117.083 23.7672 116.52 22.5858 116.958C21.4963 117.361 21.3937 118.269 20.2449 118.12C19.3376 118.005 19.6204 117.256 18.9129 116.662C18.501 116.314 17.7088 116.292 17.3146 116.662C14.9235 118.574 16.707 118.074 13.9918 117.824C11.2336 117.571 5.86491 118.417 2.50725 117.734H2.50615ZM17.9579 106.736C18.5796 105.549 19.2013 104.362 19.8231 103.173C19.6451 99.2471 19.4677 95.3197 19.29 91.3922C19.8231 90.6606 20.3557 89.9306 20.8883 89.1991C20.8883 85.2435 20.8883 81.288 20.8883 77.3319C20.8883 75.5335 20.6361 73.7352 20.6361 71.9376C18.7661 70.4007 19.6602 70.4231 21.1687 68.6498C21.1687 66.9147 21.5899 65.5148 21.5899 63.7792C21.4119 62.3182 21.2345 60.8566 21.0568 59.3953C21.3235 58.6648 21.5899 57.9341 21.8561 57.2034C21.8561 55.0058 22.1084 53.2275 22.1084 51.0297C22.1084 48.9661 22.1685 48.2748 22.5483 48.4041C22.928 48.5332 23.6278 49.4839 24.9055 50.7044C25.8763 51.632 26.8477 52.5601 27.8188 53.4874C29.6126 55.2001 31.3594 55.356 30.6324 58.1625C29.953 60.788 31.9057 61.5164 31.2988 64.1219C30.8352 66.112 30.2258 67.3288 30.3608 68.5626C30.4414 69.3027 30.7905 70.049 31.5983 70.9721C32.3451 71.825 32.5939 71.7718 32.1476 72.8215C31.4555 74.4482 30.8655 75.3969 30.7963 76.3735C30.7071 77.6283 31.3952 78.205 31.9986 80.4218C32.4925 82.235 32.4462 83.4373 31.9892 85.256C31.4481 87.4131 30.907 89.5703 30.3657 91.7275C30.3048 93.359 30.1552 94.9921 30.0385 96.6252C29.8621 99.113 29.5283 99.1769 27.7872 100.955C26.2055 102.571 24.1697 103.953 22.6437 105.397C20.9568 106.037 19.6444 106.096 17.9573 106.736H17.9579ZM22.0335 37.5055C23.385 37.5449 23.9894 37.6778 24.4084 37.5064C24.8275 37.3345 25.0616 36.858 25.6728 35.6799C26.4623 34.1567 27.6317 32.2531 28.6015 32.1099C30.2354 31.8689 31.0878 31.6273 31.0878 31.6273C31.0878 31.6273 31.9429 31.4664 31.6504 29.3727C31.3577 27.279 30.7547 25.2656 31.2861 24.7021C31.817 24.1385 31.9292 22.5281 31.364 21.8838C30.7993 21.2399 30.2621 20.5954 31.1748 19.7098C32.0874 18.824 32.7165 17.3411 30.5359 17.5828C28.3554 17.8244 28.3824 16.8867 28.1304 16.2422C27.8782 15.5982 25.4997 15.7453 24.2561 15.6743C23.0137 15.9159 21.969 15.8353 22.0048 17.1235C22.0411 18.4117 21.8321 24.6218 21.85 25.266C21.8679 25.9102 22.0335 37.5055 22.0335 37.5055ZM91.0083 94.0328C90.9111 94.5803 89.6463 94.5835 89.7435 95.1325C89.8794 95.8984 89.93 97.0946 90.7067 97.1945C92.9593 97.4846 96.0475 96.5939 98.2812 97.0042C99.1632 97.1664 99.2114 98.6607 100.02 99.0459C100.685 99.035 101.707 99.0584 102.55 99.0459C103.199 98.7106 103.024 97.5283 103.657 97.1617C104.435 96.7094 105.498 96.5379 106.344 96.8467C106.8 97.0136 106.178 98.2037 106.661 98.2614C110.601 98.1132 114.121 98.5421 117.85 98.2614C118.594 98.1397 117.836 97.0806 118.446 96.6408C119.139 96.1401 120.858 97.0136 120.975 96.1697C121.581 91.807 120.636 86.9358 121.048 82.5521C121.18 81.1486 122.535 80.3166 122.838 78.9391C122.939 78.4804 123.493 78.4722 123.537 78.0203C123.69 76.4472 123.662 74.5391 123.262 72.9899C122.73 72.4487 121.106 72.2519 120.574 72.4983C119.974 72.9375 120.519 74.4964 120.116 75.1189C119.917 75.4273 119.207 74.8099 119.01 75.1189C118.815 75.4227 119.066 75.9212 119.155 76.3154C119.209 76.5515 119.204 76.7507 119.01 76.847C117.973 77.362 116.446 76.1399 115.531 76.847C114.634 77.5408 115.642 78.8832 114.882 79.7244C113.651 81.0878 111.013 81.8866 109.786 83.2544C108.328 84.8801 108.458 86.5397 106.783 87.9435C105.471 89.0416 103.242 89.157 101.652 89.798C99.81 90.542 98.9301 91.9131 97.0164 92.4481C96.438 92.6103 95.7325 91.6058 95.9096 91.035C97.3435 86.4165 99.2069 81.7732 100.755 77.1909C101.748 74.2512 102.214 72.3966 103.287 69.4841C104.397 66.4701 105.848 62.7448 107.66 60.0882C108.017 59.5647 109.209 59.9064 109.4 59.3027C109.874 57.8042 108.987 56.1061 109.4 54.59C109.705 53.4679 110.894 52.391 111.878 51.7623C112.543 51.3377 113.604 51.9293 113.897 51.2003C114.582 49.4982 113.942 47.6953 114.374 45.9129C114.665 44.7122 115.495 43.9763 116.023 42.858C116.724 41.3736 116.673 40.085 117.446 38.6365C118.075 37.4579 119.4 35.8083 119.781 34.5285C120.305 32.7711 119.876 31.9086 120.046 30.0833C120.092 29.592 120.817 29.32 120.837 28.8266C121.082 22.9151 121.397 16.9826 121.048 11.0756C121.02 10.5943 119.932 10.615 119.941 10.1331C119.979 8.32795 120.2 6.73307 120.099 5.10623C120.08 4.78835 120.191 4.52801 119.871 4.51475C114.92 4.30839 110.034 4.42041 105.08 4.47781C101.022 4.52445 96.9537 4.20126 92.9056 4.47781C92.293 4.51961 91.7441 4.62424 91.3244 5.06925C90.9219 5.49616 90.7221 6.40723 90.7455 6.99121C90.8521 9.61646 90.6925 12.4746 90.7455 15.6313C90.755 16.2162 91.9149 15.8662 92.115 16.4168C92.6725 17.9503 92.7152 19.6612 92.5894 21.2865C92.5492 21.8087 91.9103 22.5119 91.9227 23.0347C92.1767 24.852 92.4136 26.1363 92.7475 27.8843C92.9395 28.5603 93.5249 29.0883 93.6961 29.7695C93.9005 30.5837 93.1533 32.2285 93.9954 32.2829C94.2751 32.3007 95.2511 32.4627 95.7514 32.2829C96.3947 32.0513 95.5148 30.8794 95.7514 30.2407C95.919 29.7879 96.7812 29.7743 96.8581 29.2983C97.2762 26.7116 96.5498 23.6804 96.9628 21.0925C97.0887 20.3038 97.5436 19.4708 98.2276 19.0504C98.8095 18.6925 99.8625 19.5875 100.283 19.0504C100.866 18.3053 100.292 17.447 100.653 16.5738C101.169 15.3243 102.008 14.1721 103.024 13.2749C103.957 12.4506 104.891 11.464 106.133 11.3357C108.909 11.0491 112.23 11.3063 115.989 11.1455C116.341 11.1299 116.436 11.6683 116.463 12.0182C116.596 13.741 116.912 16.0816 116.463 17.2023C115.812 18.8288 114.339 20.6442 112.844 22.3334C111.821 23.4885 110.787 24.5107 109.998 25.6685C109.052 27.0566 110.465 28.9494 109.981 30.555C109.485 32.1974 108.131 33.9433 107.081 35.3047C106.221 36.4215 104.955 36.9931 104.148 38.1487C103.141 39.5917 102.554 41.0126 101.918 42.651C101.388 44.0133 101.047 45.4511 100.811 46.8925C100.624 48.0307 101.171 49.3175 100.653 50.3485C100.273 51.1037 99.4152 50.9644 98.8623 51.6052C98.0956 52.4943 97.6465 53.634 97.2813 54.747C96.8487 56.0652 96.8132 56.8462 96.138 58.0592C95.3804 59.4199 93.8598 60.7342 93.1706 62.1302C92.4188 63.6529 92.3328 65.5031 91.957 67.1572C91.5935 68.7569 91.2896 70.2636 90.9571 71.8699C90.5499 73.8357 90.125 75.8331 90.1666 77.8395C90.1791 78.45 90.829 78.8703 91.1152 79.4103C91.3568 79.8663 91.9116 80.3351 91.7477 80.8241C91.5237 81.4923 90.2667 81.5406 90.1666 82.238C90.0633 82.958 90.2477 83.6229 90.7797 84.1236C91.2424 84.5572 92.1868 84.3685 92.519 84.9082C92.8763 85.49 92.812 86.3354 92.519 86.9499C92.2752 87.4631 91.4191 87.3382 91.3075 87.8935C90.8529 90.1536 91.411 91.7634 91.0083 94.0328ZM228.089 116.295C227.793 115.36 228.534 115.177 229.027 114.689C229.747 113.974 230.444 113.277 230.73 111.87C230.838 111.337 231.388 110.474 231.515 109.62C231.702 108.372 231.416 107.071 231.074 106.265C230.625 105.209 229.888 104.658 230.155 103.65C230.249 103.006 231.716 102.927 232.871 102.417C233.477 102.15 233.997 101.627 234.19 101.136C234.443 100.489 233.601 100.599 233.173 99.7775C232.716 98.9024 232.648 97.5923 232.297 96.9403C231.683 95.8048 230.56 94.2808 230.52 92.9909C230.41 89.55 231.413 86.0764 231.541 82.7658C231.65 79.9897 232.311 79.3281 232.097 76.4835C231.992 75.0671 231.226 74.0364 230.435 72.5904C229.78 71.3918 228.92 70.2058 228.59 69.0753C228.005 67.0636 228.593 64.679 228.239 62.6148C228.169 62.2102 227.149 61.7153 227.111 61.3062C226.848 58.4724 227.17 55.5706 226.986 52.7677C226.892 52.2403 226.461 52.1399 226.411 51.6068C226.262 50.0356 226.41 48.5055 226.405 47.1474C226.4 45.9488 226.234 44.9247 226.234 43.532C226.234 43.0127 225.801 42.6571 225.783 42.1378C225.678 39.0732 225.807 35.6892 225.766 32.6195C225.722 29.3516 225.521 26.3977 225.783 23.1437C225.829 22.5952 226.945 22.6084 226.923 22.0587C226.819 19.5653 226.603 18.5736 226.661 16.0657C226.667 15.7763 227.264 15.1039 227.287 14.8153C227.461 12.7288 227.722 10.6403 227.187 8.85467C226.801 7.56131 225.824 7.15841 224.703 6.32409C223.714 5.5871 222.611 4.38907 221.695 3.71759C220.524 2.85768 219.744 2.16606 218.857 0.878315C218.324 0.103265 219.204 0.0355803 220.187 0.00703649C221.449 -0.0296181 222.827 0.0798839 224.028 0.266744C224.435 0.329915 225.199 1.02603 225.584 1.17406C226.51 1.53093 227.116 1.06754 228.064 1.36155C228.788 1.58632 231.81 3.1517 232.623 3.61729C233.734 4.25337 234.094 5.17769 235.254 5.71799C235.463 5.81517 239.047 6.83444 239.463 6.93785C240.433 7.17852 241.036 6.47369 242.006 6.71437C243.133 6.99357 245.138 7.55771 246.403 7.93408C247.116 8.1459 247.566 8.98289 248.296 9.12733C251.836 9.82922 251.204 8.65676 254.007 11.442C254.833 12.2628 256.197 12.9219 256.813 13.9082C257.682 15.3 257.773 17.0059 258.326 18.5227C258.756 19.7021 259.717 20.6709 259.944 21.924C260.558 25.2964 259.918 28.8032 260.334 32.2052C260.461 33.2443 261.536 34.3404 261.649 35.3814C262.078 39.3666 262.15 43.3018 261.662 47.2801C261.497 48.6211 260.36 49.1665 260.158 50.5023C259.82 52.7431 260.494 55.0378 260.334 57.2983C260.258 58.3808 259.652 59.5109 259.081 60.4349C258.663 61.1078 257.709 61.3503 257.403 62.0787C256.597 63.991 256.8 66.6055 256.426 68.6775C256.31 72.6323 256.392 75.7004 256.563 79.6528C256.684 82.4387 256.971 84.9394 256.613 87.7048C256.488 88.6625 255.681 89.1882 255.536 90.1444C255.138 92.7866 255.48 95.5006 255.222 98.16C255.178 98.6123 254.503 99.1364 254.408 99.581C254.229 102.011 254.057 105.558 252.992 108.294C252.29 110.098 250.583 111.917 248.945 112.962C247.357 113.974 245.651 114.193 243.822 114.656C242.667 114.948 241.373 114.807 240.315 115.352C239.681 115.679 240.106 115.684 239.527 116.096C239.193 116.331 238.615 116.352 238.3 116.096C237.854 115.732 237.992 115.584 237.472 115.339C236.68 114.966 235.647 114.996 234.841 115.339C234.26 115.587 234.472 116.038 233.851 116.158C232.596 116.402 231.127 116.717 229.771 116.681C228.959 116.66 228.319 117.024 228.089 116.295ZM239.862 26.8081C241.623 26.7155 241.968 26.6205 243.537 27.4574C245.158 28.3214 245.497 28.8913 246.488 30.4525C247 30.9423 247.51 31.4323 248.02 31.9218C250.103 33.9195 251.086 36.7392 251.937 39.3813C252.076 42.2497 252.696 47.2749 251.255 49.8777C250.536 51.177 250.252 52.1798 250.13 53.2822C249.789 56.3669 248.908 55.8852 248.012 58.2211C247.769 58.8547 247.822 59.643 247.8 61.1469C247.722 66.5168 247.642 71.8874 247.563 77.257C247.513 80.688 246.863 82.3251 245.467 85.4931C244.648 87.0077 244.218 87.984 244.218 89.7029C244.218 91.74 243.799 92.679 242.984 94.5351C242.488 95.6644 241.99 96.7952 241.494 97.926C240.905 99.2658 240.365 99.7462 239.975 99.5669C239.584 99.3891 239.342 98.5483 239.348 97.2475C239.383 90.6918 239.417 84.1377 239.452 77.5819C239.527 70.6123 239.603 63.6426 239.678 56.6732C239.59 55.1765 239.647 54.8448 238.658 53.7347C238.565 51.4785 238.127 50.458 237.408 48.3099C236.501 46.6161 236.604 45.3804 236.582 43.4441C236.526 38.6003 236.468 33.7556 236.411 28.9118C236.377 25.9393 237.053 26.9555 239.862 26.8081ZM124.893 110.145C124.351 107.509 124.73 105.414 124.873 103.432C124.94 102.959 125.9 103.401 126.161 103.002C126.55 102.404 126.901 101.585 126.644 100.921C126.49 100.523 126.217 101.072 125.987 100.712C125.668 100.216 125.78 99.414 126.147 98.9523C126.683 98.277 127.756 98.4517 128.122 97.6718C128.621 96.608 127.764 95.2697 128.122 94.1514C128.235 93.7957 129.161 94.5148 129.249 94.1514C129.666 92.4403 129.147 90.6122 129.41 88.8715C129.479 88.4176 129.882 88.2071 129.935 87.7517C130.158 85.8441 130.275 83.8818 129.935 81.9911C129.724 80.8173 128.769 79.9723 128.605 78.7911C128.007 74.5069 127.826 69.842 128.381 65.5519C128.812 62.2213 130.949 57.0709 132.204 53.9528C132.989 52.0023 133.374 52.6106 134.08 50.6299C134.296 50.0245 134.445 49.319 134.241 48.7098C133.987 47.951 133.085 47.3709 133.212 46.5809C133.368 45.613 134.566 45.6374 134.885 44.7096C135.32 43.4484 134.446 41.9691 134.885 40.7095C135.403 39.2276 137.186 38.3765 137.623 36.8694C138.04 35.4313 137.593 33.1338 138.002 31.6928C138.81 28.8461 139.781 27.0073 141.166 24.3889C141.984 22.8428 143.405 21.5366 144.044 19.9086C144.659 18.3401 144.597 16.2636 144.87 14.9485C143.863 13.6985 141.554 15.4431 140.039 14.8995C139.27 14.6239 139.272 13.3751 138.512 13.0773C136.882 12.9672 135.324 12.9299 134.164 13.7945C132.607 14.954 132.595 16.3133 131.987 18.1486C131.078 20.8908 131.77 23.9716 130.636 26.6289C130.187 27.6797 128.357 27.9751 127.478 28.709C127.012 29.0971 126.796 29.5017 126.189 29.5017C125.582 29.5017 125.053 29.2933 124.901 28.709C124.593 27.5215 124.961 26.2542 124.901 25.0289C124.854 24.0643 124.334 23.0832 124.579 22.1488C124.707 21.662 125.828 21.8505 125.867 21.3487C126.349 15.8512 125.687 10.389 125.771 5.1357C125.801 3.29127 126.294 3.56472 128.121 3.54632C131.199 3.51481 136.077 3.53849 139.615 3.52071C145.823 3.48983 152.045 3.25962 158.235 3.42808C159.157 3.49437 160.356 3.83424 160.42 4.74951C160.551 6.60034 159.303 8.385 158.439 10.0298C157.982 10.899 156.962 11.4673 156.626 12.3883C156.055 13.9495 156.675 15.7994 156.072 17.3485C155.703 18.2992 153.827 18.475 153.468 19.4287C152.957 20.7777 153.838 22.4081 153.306 23.7488C153.042 24.4145 151.614 24.0342 151.374 24.7088C150.563 26.992 151.039 29.5709 150.408 31.9092C150.058 33.1999 149.074 34.1049 148.896 35.4293C148.413 39.0242 149.21 42.6967 148.896 46.3098C148.827 47.0942 147.994 47.6354 147.768 48.3899C147.237 50.1641 146.903 52.0815 146.29 53.83C146.027 54.5853 145.047 54.977 144.841 55.7501C144.539 56.8844 145.297 58.188 144.841 59.2702C144.268 60.6309 142.251 61.1874 141.943 62.6305C141.073 66.7029 142.45 70.9968 141.81 75.1108C141.524 76.952 139.891 78.3984 139.555 80.231C139.124 82.5922 139.867 85.3839 139.275 87.7095C138.704 89.9556 137.065 91.9022 136.244 94.0687C136.051 96.1947 133.488 98.1459 134.885 99.7525C136.572 99.974 139.37 100.316 141.327 99.4312C142.228 99.0257 141.184 97.1477 141.971 96.5519C144.376 94.7269 147.135 94.0687 149.834 92.7117C151.377 91.935 153.317 91.1941 154.694 90.1522C155.392 89.6218 155.472 88.363 156.303 88.0714C156.804 87.8951 156.907 89.1024 157.43 89.1913C159.229 89.4955 160.789 88.7312 162.555 89.1913C163.262 89.3754 163.24 90.319 163.424 91.0209C163.588 91.6495 163.874 92.3265 163.522 92.8708C163.311 93.1984 162.543 92.8334 162.394 93.1921C162.088 93.9314 162.207 94.8143 162.394 95.5911C162.541 96.1963 163.099 96.5722 163.15 97.1914C163.427 100.434 163.518 103.719 163.15 106.952C163.073 107.631 162.686 108.342 162.003 108.412C157.358 108.2 153.064 108.539 148.413 108.553C147.934 108.511 148.209 107.668 147.768 107.481C146.568 106.97 144.406 106.899 143.133 107.189C141.652 107.526 141.528 108.737 140.039 109.032C137.354 109.565 134.252 109.042 131.545 109.45C130.589 109.593 129.858 110.399 128.919 110.632C127.617 110.955 125.564 111.3 124.893 110.145ZM53.1615 117.66C51.1534 118.361 48.8106 117.662 46.6822 117.707C46.0261 117.721 44.9583 118.233 44.3282 118.049C43.6403 117.849 42.5563 116.494 42.9863 115.923C44.6662 113.697 47.9779 113.419 49.5116 111.094C50.4137 109.726 49.5688 107.884 49.9564 106.294C50.0754 105.806 50.9363 105.851 51.1909 105.418C51.3978 105.065 51.4585 104.502 51.1909 104.192C50.5793 103.482 50.192 104.97 49.9507 102.846C49.7347 100.946 49.6893 99.0163 49.8667 97.118C49.9782 95.9092 50.8626 96.1651 51.0298 95.5271C51.3411 94.3401 50.6934 93.4604 51.0141 92.275C51.1579 91.7431 52.1502 91.8772 52.4251 91.3983C52.6871 90.9429 52.7182 90.2597 52.4251 89.8214C51.8243 88.9261 50.1914 88.9402 50.0094 87.8795C49.6748 85.9283 49.854 83.8335 49.8886 81.8975C49.9255 79.8356 49.7829 77.7678 49.9561 75.667C49.9879 75.2773 50.876 75.2939 51.0141 74.9276C51.2821 74.2169 51.1125 73.4024 51.0141 72.6495C50.9353 72.0455 51.1221 70.8099 51.0755 70.2025C51.004 69.2693 50.6005 68.9227 51.0371 68.0935C51.3414 67.5158 52.3337 67.8636 52.4251 67.2174C52.9075 63.8048 51.8777 60.3058 52.2486 56.8789C52.3116 56.2984 53.2315 56.3907 53.3861 55.8275C53.6351 54.9189 53.712 53.8746 53.3069 53.0238C53.1158 52.6221 52.2144 52.6206 52.1795 52.1774C51.7835 47.17 52.4726 42.4359 52.0723 37.4284C52.0348 36.9594 50.8756 37.6172 50.8541 35.5821C50.8303 33.4493 50.6325 31.4612 50.6616 29.8935C50.684 28.6906 53.296 28.6581 53.2684 27.4553C53.2263 25.6222 53.5171 23.5535 53.0919 21.6727C52.9554 21.068 52.1613 21.168 51.896 20.6063C51.6463 20.0788 51.8819 19.5527 52.1105 19.0144C52.3849 18.3666 53.1306 17.9578 53.3069 17.2769C53.6296 16.0332 53.5973 14.6742 53.3069 13.422C53.2117 13.0122 52.4999 12.6119 52.3021 12.24C51.9357 11.5518 52.1014 10.9445 51.6121 10.3361C51.2739 9.91641 50.2755 10.1743 49.864 9.82534C48.8052 8.92691 48.1947 7.92799 47.3067 7.10974C46.4718 6.34124 45.3466 5.76211 44.7034 4.63066C44.2901 3.9038 44.7715 2.64647 45.4395 2.13892C45.9525 1.74929 46.7561 1.83741 47.326 2.13892C47.7892 2.38442 47.7801 3.36225 48.2997 3.43384C50.5728 3.74844 52.829 2.75427 55.0704 3.24372C56.0474 3.45726 56.0996 4.68355 57.0104 5.09424C57.6196 5.36923 58.7179 4.83765 59.2724 5.20981C60.0862 5.7562 60.7766 6.91866 61.4181 7.56784C62.2428 8.40248 62.9537 8.77402 63.3749 9.95586C63.9063 11.4481 63.6735 12.9792 63.6501 14.5313C63.6296 15.9008 63.8539 17.2877 63.7274 18.6789C63.685 19.1468 62.7804 18.9266 62.6539 19.3797C62.4319 20.1752 62.5907 21.0657 63.0067 21.7796C63.3092 22.2994 64.1286 22.0348 64.3256 22.6022C64.7853 23.9283 64.8438 25.5539 64.5019 26.9147C64.3748 27.4213 63.3906 27.0948 63.3594 27.6156C62.9633 34.2044 62.8644 40.8504 63.5357 47.4164C63.6495 48.5326 65.4254 48.93 65.5447 50.0449C66.2103 56.2599 65.6044 62.5504 65.3455 68.7945C65.3091 69.6826 64.8661 70.7988 64.5019 71.4616C64.0944 72.2023 64.3478 72.9424 64.363 73.7599C64.3829 74.811 64.2564 75.9573 64.4175 77.0303C64.5095 77.6431 65.7642 78.2264 65.721 78.8447C65.6022 80.5481 65.846 81.3533 65.9508 83.0329C66.0014 83.8413 64.5195 84.3466 64.0495 85.008C63.7114 85.4837 63.5057 86.4056 63.7812 86.9203C64.041 87.4054 64.5077 87.1589 64.6554 87.6892C64.8644 88.4395 64.882 89.0728 64.5019 89.7544C64.2567 90.1927 63.3531 90.135 63.2674 90.6294C63.0272 92.016 63.8197 93.4433 63.6202 94.8361C63.5605 95.2526 62.6246 95.12 62.5619 95.5364C62.2484 97.6156 62.9167 99.7712 62.5619 101.844C62.428 102.627 61.2075 102.98 61.1511 103.772C61.1194 104.215 62.175 103.906 62.3856 104.298C62.7184 104.918 61.883 106.204 62.5619 106.4C64.8184 107.057 67.6108 106.887 69.8847 106.294C71.1726 105.957 71.7176 104.164 73.0438 104.039C74.6414 103.889 75.8202 104.937 77.3993 105.218C79.4814 105.591 81.759 105.658 83.8017 105.112C85.0072 104.789 85.7074 103.518 86.9456 103.354C92.3051 102.638 97.279 103.078 102.687 103.05C107.8 103.022 114.342 102.766 118.138 103.178C120.303 103.249 117.955 110.86 118.736 114.879C118.906 115.754 119.658 116.244 120.111 117.053C120.832 118.345 121.111 119.002 119.239 118.994C115.717 118.977 112.153 119.247 108.331 119.086C107.58 119.055 107.616 117.617 106.92 117.333C106.157 117.022 105.252 117.701 104.451 117.509C103.25 117.22 101.897 116.077 100.671 115.932C97.4025 115.542 94.1088 116.356 90.8486 115.909C90.1086 115.807 90.0066 114.385 89.2614 114.33C81.6401 113.776 74.3373 114.572 66.7085 114.159C65.0743 114.07 64.9253 113.503 63.8881 113.204C62.4205 112.783 59.7959 112.614 58.4135 113.259C55.8371 114.456 55.8453 116.723 53.1612 117.66H53.1615ZM144.906 88.0527C143.314 88.0059 143.208 85.465 143.334 83.9068C143.464 82.3127 145.559 82.3963 146.306 80.9805C146.851 79.9497 146.035 78.1373 146.656 77.1498C147.325 76.0864 149.138 76.1258 149.807 75.0625C150.19 74.4549 149.618 73.2893 149.636 72.5728C149.678 70.8762 150.061 69.6263 149.983 67.9313C149.942 67.0496 149.573 65.4571 149.741 64.5903C149.972 63.4064 150.681 63.6937 151.033 62.5393C151.471 61.0955 150.742 59.4526 151.207 58.0171C151.392 57.4494 152.89 57.7343 152.783 57.1474C152.653 56.4331 151.342 56.8176 151.212 56.1037C150.815 53.93 150.793 51.3723 151.383 49.2426C151.752 47.9104 153.273 46.8911 153.659 45.5628C154.063 44.171 153.209 42.5927 153.659 41.2144C153.964 40.2787 155.519 40.0811 155.76 39.1273C156.325 36.877 155.821 34.1169 156.41 31.8728C156.719 30.6952 157.337 29.3604 158.096 28.6223C158.551 28.1791 158.96 27.8572 159.174 27.1589C159.466 26.2024 158.749 25.3981 158.913 24.4118C159.059 23.5393 159.73 22.9792 160.155 22.2032C160.694 21.2234 160.918 19.9819 161.435 18.9918C162.188 17.5442 163.202 16.3331 163.742 14.793C164.146 13.6447 163.279 11.7717 163.796 10.6682C164.527 9.10562 166.417 9.14415 167.138 7.57627C167.72 6.30973 166.701 4.65435 167.314 3.40185C167.758 2.48939 168.761 2.08653 169.78 2.04629C170.527 2.01681 171.434 2.53056 171.689 3.22778C172.189 4.59398 171.737 6.23564 172.304 7.57627C173.298 9.93386 175.021 11.3235 175.977 13.697C176.475 14.9345 175.937 16.714 176.241 18.0122C176.656 19.7771 176.946 21.557 177.533 23.2757C178.262 25.416 179.305 27.4921 179.918 29.6658C180.459 31.5908 180.59 33.6795 181.007 35.6389C181.313 37.0686 181.872 38.3813 182.368 39.7541C182.58 40.3435 183.298 40.1939 183.469 40.7975C183.768 41.8639 182.867 43.0235 183.119 44.1024C183.417 45.3915 184.814 46.6979 185.043 48.0009C185.417 50.1136 185.027 52.1344 185.079 54.279C185.126 56.2388 185.335 58.0589 185.594 59.9378C185.754 61.0941 186.398 62.7427 186.428 63.583C186.536 66.7134 186.676 69.7954 186.71 72.9295C186.764 77.5097 186.764 82.4063 186.533 86.978C186.506 87.5114 185.866 87.7844 185.677 88.2851C184.963 90.1802 184.365 91.2283 183.907 93.2014C183.665 94.2418 183.657 95.3618 183.206 96.3319C182.93 96.9278 181.698 97.416 181.489 98.0383C181.026 99.4234 181.594 100.816 181.492 102.544C181.406 104.032 180.786 104.887 180.163 106.271C179.736 107.216 179.042 108.69 178.778 109.676C178.491 110.746 179.007 111.919 178.692 112.981C178.525 113.536 177.762 113.804 177.641 114.372C177.338 115.79 177.904 117.337 177.466 118.719C177.219 119.502 177.048 119.388 176.296 119.725C175.762 119.962 174.362 120.232 174.282 119.655C173.943 117.234 174.629 115.553 174.243 113.137C173.791 110.311 172.601 108.592 171.883 105.818C171.535 104.472 172.158 102.039 171.514 100.805C170.356 98.5827 166.646 97.6842 166.808 95.1871C166.963 92.771 168.417 91.1987 169.897 89.2334C170.908 87.8873 171.566 85.6896 172.196 84.1563C172.659 83.0256 172.929 81.7012 172.949 80.586C172.981 78.9214 172.527 78.1969 171.258 77.1617C168.609 74.9982 164.326 73.0198 161.028 71.4264C160.544 71.1929 159.978 72.1096 159.978 72.644C159.978 73.1785 160.607 73.5941 160.67 74.124C160.854 75.6826 159.904 77.2997 160.584 78.7152C161.301 80.2109 164.131 80.6463 163.712 82.2493C163.43 83.3227 163.164 83.7009 162.248 84.225C161.692 84.5432 161.075 84.5214 160.425 84.551C158.475 84.6399 156.471 83.9536 154.587 84.3498C152.541 84.7803 150.711 85.7193 148.821 86.6552C147.57 87.2759 146.29 88.0948 144.906 88.0527ZM162.149 63.7355C162.132 62.2012 162.094 60.6912 162.097 59.1821C162.1 57.8496 162.133 56.5174 162.238 55.1689C162.307 54.2928 163.114 53.6243 163.218 52.7521C163.392 51.3098 162.5 49.5789 162.907 48.192C163.07 47.629 164.507 48.1935 164.832 47.7203C164.938 47.5652 165.157 46.6624 165.519 45.8925C165.737 45.4307 166.191 45.0161 166.191 44.8392C166.191 44.5814 166.174 42.7504 166.369 41.1639C166.482 40.2431 166.624 39.4653 166.766 39.4592C166.905 39.453 167.047 40.2165 167.538 40.8516C168.103 41.5824 168.295 42.3072 168.789 43.0801C169.081 43.5362 169.395 44.0732 169.877 44.2591C170.491 44.4962 171.226 44.1626 171.836 44.4075C172.293 44.5904 172.404 45.3028 172.816 45.5865C173.094 45.7785 173.731 45.4129 173.795 45.7634C174.086 47.3426 173.835 49.4561 174.087 51.0426C174.149 51.4228 174.995 51.246 175.014 51.632C175.142 54.3949 175.207 57.162 175.197 59.9294C175.189 62.3712 175.125 64.8138 174.998 67.2537C174.963 67.9491 173.114 67.9978 172.598 67.6074C171.599 66.8515 170.967 65.9742 169.66 65.662C169.116 65.5322 169.142 64.6751 168.626 64.5042C167.48 64.1249 166.034 64.0303 164.836 64.0303C164.055 64.0303 162.926 64.3045 162.149 64.207C162.006 64.1892 162.15 63.8917 162.149 63.7355ZM199.325 16.1153C199.329 17.7048 199.5 19.4271 199.504 21.0916C199.512 23.2336 199.355 25.1525 199.363 27.3117C199.371 29.611 199.544 32.1508 199.544 34.3993C199.544 36.2271 199.208 39.7403 199.351 41.2584C199.533 43.2103 199.641 43.5485 202.327 43.5485C203.627 43.5485 205.388 42.2238 206.686 40.8851C207.575 39.9687 207.441 38.3868 207.782 37.7025C208.285 36.6967 209.143 35.7768 209.322 34.6091C209.551 33.1072 208.999 31.8674 210.007 30.9067C210.404 30.5268 210.779 26.2143 210.779 25.2653C210.779 23.9127 209.349 21.9068 207.705 20.1122C206.581 18.8842 205.233 17.782 204.658 16.9408C203.605 15.4007 202.817 14.725 201.569 14.448C199.289 13.9422 199.324 14.1501 199.325 16.1153ZM187.291 100.759C186.866 102.428 188.159 103.109 189.69 104.092C191.217 105.074 192.985 106.36 194.649 107.715C197.465 110.008 199.382 114.193 201.214 118.314C202.157 117.317 201.492 112.672 202.021 109.889C202.134 109.294 202.781 108.863 202.842 108.259C203.059 106.096 203.112 103.895 202.842 101.738C202.74 100.933 201.956 100.345 201.748 99.5638C201.583 98.9508 201.622 98.2816 201.748 97.6608C201.9 96.9028 202.498 96.2571 202.567 95.4866C202.774 93.2311 202.909 90.932 202.567 88.6937C202.438 87.8483 201.135 87.371 201.2 86.5194C201.255 85.8144 202.789 85.8659 202.842 85.1609C202.991 83.1407 202.286 81.1911 202.035 79.182C201.467 74.6652 201.135 70.1218 200.666 65.5943C200.498 63.9626 199.842 62.3197 200.12 60.7029C200.975 58.4974 201.757 56.2318 202.581 54.4526C202.983 53.9282 203.514 54.9526 203.922 55.4719C205.255 57.163 207.025 59.2557 207.409 61.369C207.878 63.9603 206.465 66.2529 206.766 68.8691C206.854 69.6324 208.038 69.4955 208.311 70.2142C209.617 73.6479 210.678 77.1977 211.321 80.8125C212.052 84.9315 212.288 89.132 212.415 93.3138C212.47 95.1325 212.391 97.0042 211.867 98.748C211.12 101.239 209.562 103.225 208.79 105.631C207.982 108.149 207.721 108.901 210.402 108.899C211.463 108.897 212.702 108.94 213.521 109.347C215.716 110.437 216.622 112.951 218.705 114.238C219.156 114.516 219.744 114.901 220.364 115.246C223.319 116.89 223.644 115.754 224.259 113.184C225.071 109.785 225.276 106.72 225.802 103.368C226.071 101.668 226.014 99.9241 226.089 98.2052C226.196 95.7548 226.381 93.3169 226.254 90.8665C226.196 89.7231 226.202 88.4723 225.447 87.6066C224.881 86.9562 223.209 87.6206 222.986 86.7908C222.68 85.6537 224.331 84.707 224.353 83.5293C223.901 80.3522 223.487 77.5091 223.433 74.3776C223.372 70.6857 222.576 72.544 221.344 71.097C220.6 70.2226 220.367 69.4516 220.251 68.3119C219.907 64.9763 220.394 61.2853 219.881 57.9717C219.652 56.4899 218.955 55.0284 217.967 53.8954C217.609 53.4847 216.953 54.0957 216.708 53.6098C216.298 52.7957 217.557 52.2385 217.077 51.4632C215.961 49.6623 213.625 48.2877 211.854 47.1152C211.324 46.7638 210.39 47.5635 209.939 47.1152C209.489 46.667 209.5 45.2908 209.939 44.8324C213.093 44.3786 214.716 42.9032 216.256 41.1368C218.345 38.742 219.367 36.0725 220.415 33.0795C220.898 31.6999 220.28 30.0875 220.441 28.6362C220.741 25.9504 222.159 23.5114 221.686 20.8503C221 16.9803 219.08 13.5123 216.873 10.2519C215.647 8.44198 213.743 6.83776 211.758 5.90392C210.102 5.12466 208.716 5.77664 206.958 5.2655C204.922 4.67373 203.291 3.54211 201.214 3.11911C199.597 2.78968 197.9 3.46007 196.291 3.0915C195.286 2.86127 195.123 1.73913 194.103 1.58347C193.399 1.47584 192.68 2.48846 191.971 2.54804C187.065 2.96091 183.038 2.01679 178.156 2.65676C177.428 2.75238 177.635 3.55956 178.24 3.97477C179.142 4.5954 180.514 4.2889 181.522 4.72205C183.33 5.50069 184.721 6.54745 186.062 7.98306C187.172 9.17036 187.624 10.491 188.632 12.3311C189.046 13.0854 190.238 11.637 191.095 11.5158C192.176 11.3623 192.928 11.3334 193.611 12.1818C194.225 12.9428 192.955 13.957 192.231 14.6135C190.767 15.9399 189.77 16.6424 188.475 17.5231C187.589 18.1259 186.021 18.6672 185.363 19.8448C183.903 22.4574 185.635 25.4286 186.197 28.3644C186.403 29.4352 186.638 30.482 186.883 31.544C187.677 34.9972 187.41 37.8713 187.894 41.3809C188.051 42.5153 188.861 43.5037 188.988 44.6419C189.139 45.9949 188.894 46.9915 189.098 48.3376C189.183 48.9107 189.655 49.5182 189.809 50.0769C190.49 52.562 191.09 55.6831 191.177 58.2572C191.456 66.6771 190.954 74.926 191.381 83.3406C191.42 84.1065 192.577 84.4091 192.735 85.1609C192.982 86.326 192.2 87.6643 191.806 88.7889C190.188 93.3933 188.29 96.8389 187.291 100.759Z" fill="#00AEFF"/>
</svg>
